<svg width="60" height="60" viewBox="0 0 60 60" xmlns="http://www.w3.org/2000/svg">
    <g fill="none" fill-rule="evenodd">
        <g fill="white" fill-opacity="0.1">
            <path d="M36 34v1h-1v1h-1v1h-1v1h-1v-1h-1v-1h-1v-1h-1v-1h1v1h1v1h1v1h1v1h1v-1h1v-1h1v-1h1v-1h1v1zM6 34v1H5v1H4v1H3v1H2v-1H1v-1H0v-1h1v1h1v1h1v1h1v-1h1v-1h1v-1h1v1zm0-30V3H5V2H4V1H3V0H2v1H1v1H0v1h1v1h1v1h1v1h1V4h1V3h1V2zm30 0V3h-1V2h-1V1h-1V0h-1v1h-1v1h-1v1h1v1h1v1h1v1h1V4h1V3h1V2zM15 6h1v1h-1V6zm1 1h1v1h-1V7zm-1 1h-1V7h1v1zM16 7V6h1v1h-1zm30 0h1v1h-1V7zm1 1h1v1h-1V8zm-1 1h-1V8h1v1zM46 8V7h1v1h-1zm-30 30h1v1h-1v-1zm1 1h1v1h-1v-1zm-1 1h-1v-1h1v1zM16 39v-1h1v1h-1zm30 0h1v1h-1v-1zm1 1h1v1h-1v-1zm-1 1h-1v-1h1v1zM46 39v-1h1v1h-1z" />
        </g>
    </g>
</svg>
